<svg width="115" height="47" viewBox="0 0 115 47" fill="none" xmlns="http://www.w3.org/2000/svg">
<g clip-path="url(#clip0_63_19)">
<path d="M50.8047 14.1162V43.5199H36.336C36.3246 36.1582 36.3122 28.7928 36.2988 21.4235H34.517C34.5285 28.7966 34.5409 36.162 34.5542 43.5199H20.0798V21.4178H18.2865V43.5199H3.83496V14.1162H50.8047Z" fill="#192D36"/>
<path d="M82.9024 31.6078C82.6672 31.6104 82.4355 31.5513 82.2303 31.4362C82.029 31.3245 81.8627 31.1592 81.7498 30.9586C81.6347 30.7525 81.5755 30.5198 81.5782 30.2837C81.5756 30.0503 81.6348 29.8204 81.7498 29.6173C81.8651 29.4185 82.0309 29.2538 82.2303 29.1397C82.4313 29.0167 82.6616 28.95 82.8972 28.9464C83.1328 28.9429 83.365 29.0027 83.5696 29.1196C83.7742 29.2365 83.9436 29.4062 84.0602 29.611C84.1767 29.8158 84.2362 30.0481 84.2323 30.2837C84.2363 30.5199 84.1771 30.753 84.0607 30.9586C83.9503 31.1581 83.787 31.3234 83.5888 31.4362C83.3796 31.5542 83.1425 31.6135 82.9024 31.6078Z" fill="#192D36"/>
<path d="M70.5958 22.8652V31.491H68.3192V24.9416L65.4936 31.491H63.074L60.2483 24.9902V31.491H57.9746V22.8652H61.6611L64.2895 29.1687L66.9064 22.8652H70.5958Z" fill="#192D36"/>
<path d="M78.4236 28.2478C78.6414 28.2088 78.8524 28.1385 79.05 28.039C79.5143 27.8344 79.911 27.5021 80.194 27.0809C80.4749 26.6576 80.6206 26.1588 80.6115 25.6509C80.6259 25.1315 80.4802 24.6202 80.194 24.1865C79.9077 23.7683 79.512 23.4368 79.05 23.2285C78.5056 22.9833 77.9137 22.8622 77.3168 22.8738H72.2031V31.4996H74.5769V28.3822H75.8182L78.1519 31.491H80.9061L78.4236 28.2478ZM74.5769 24.6442H76.985C77.3055 24.6244 77.6229 24.7163 77.8831 24.9044C77.9924 24.9946 78.0783 25.1098 78.1335 25.2402C78.1888 25.3707 78.2118 25.5125 78.2005 25.6537C78.2079 25.7928 78.1831 25.9318 78.128 26.0598C78.0729 26.1877 77.9891 26.3013 77.8831 26.3916C77.6219 26.5774 77.305 26.6682 76.985 26.649H74.5769V24.6442Z" fill="#192D36"/>
<path d="M96.1671 22.8652V24.9788H92.8753V31.491H90.49V24.9788H87.1953V22.8652H96.1671Z" fill="#192D36"/>
<path d="M104.956 29.5634V31.491H96.9307V22.8652H104.893V24.7929H99.313V26.3173H104.575V28.039H99.313V29.5634H104.956Z" fill="#192D36"/>
<path d="M108.597 27.6385C108.588 27.9909 108.665 28.3402 108.82 28.6567C108.968 28.9427 109.202 29.1749 109.489 29.3202C109.832 29.4711 110.204 29.5491 110.579 29.5491C110.954 29.5491 111.325 29.4711 111.668 29.3202C111.952 29.1751 112.182 28.9424 112.323 28.6567C112.476 28.3394 112.552 27.9905 112.544 27.6385V22.8623H114.937V27.7529C114.954 28.4799 114.765 29.1968 114.391 29.8207C114.021 30.4101 113.493 30.8837 112.867 31.1878C112.147 31.5105 111.367 31.6773 110.579 31.6773C109.79 31.6773 109.01 31.5105 108.291 31.1878C107.661 30.8851 107.13 30.4113 106.758 29.8207C106.384 29.1968 106.195 28.4799 106.211 27.7529V22.8623H108.594L108.597 27.6385Z" fill="#192D36"/>
<path d="M64.8304 42.3188V43.5343H57.8491V35.5234H64.7818V36.7389H59.2877V38.9383H64.5244V40.1195H59.2877V42.3188H64.8304Z" fill="#192D36"/>
<path d="M80.6086 36.7389C80.363 36.3517 80.0144 36.0407 79.6018 35.8408C79.1115 35.6198 78.578 35.5113 78.0403 35.5234H73.8018V43.5314H75.2146V40.5856H78.0403C78.5782 40.5967 79.1118 40.4872 79.6018 40.2652C79.9077 40.1083 80.1781 39.8902 80.3963 39.6245C80.6145 39.3587 80.7757 39.051 80.8701 38.7204C80.9645 38.3898 80.99 38.0434 80.945 37.7025C80.9 37.3616 80.7855 37.0337 80.6086 36.7389ZM79.1242 39.0126C78.799 39.2668 78.3923 39.3938 77.9802 39.3701H75.2032V36.7389H77.9802C78.3925 36.7138 78.7996 36.841 79.1242 37.0964C79.2561 37.2187 79.3613 37.3669 79.4332 37.5318C79.5051 37.6967 79.5422 37.8746 79.5422 38.0545C79.5422 38.2343 79.5051 38.4123 79.4332 38.5771C79.3613 38.742 79.2561 38.8902 79.1242 39.0126Z" fill="#192D36"/>
<path d="M86.7805 40.314C87.1923 40.2997 87.597 40.2024 87.9703 40.028C88.3697 39.8469 88.7105 39.5576 88.9541 39.1929C89.1878 38.8169 89.3116 38.3829 89.3116 37.9402C89.3116 37.4975 89.1878 37.0636 88.9541 36.6875C88.7165 36.3121 88.3746 36.0139 87.9703 35.8295C87.5055 35.6153 86.9976 35.5106 86.4859 35.5235H82.1216V43.5315H83.5258V40.3283H85.136L87.8273 43.5344H89.5318L86.7805 40.314ZM83.5258 36.739H86.3515C86.7493 36.7207 87.1421 36.8332 87.4698 37.0594C87.5983 37.1667 87.7017 37.301 87.7727 37.4527C87.8436 37.6044 87.8804 37.7699 87.8804 37.9374C87.8804 38.1049 87.8436 38.2703 87.7727 38.422C87.7017 38.5737 87.5983 38.708 87.4698 38.8154C87.1421 39.0415 86.7493 39.154 86.3515 39.1357H83.5258V36.739Z" fill="#192D36"/>
<path d="M97.4827 42.3188V43.5343H90.5015V35.5234H97.4341V36.7389H91.94V38.9383H97.1767V40.1195H91.94V42.3188H97.4827Z" fill="#192D36"/>
<path d="M98.4639 40.9263H99.8939C99.9344 41.2423 100.074 41.5375 100.291 41.77C100.538 42.0305 100.844 42.2269 101.184 42.342C101.596 42.4801 102.03 42.5468 102.465 42.5393C103.056 42.5691 103.645 42.4532 104.181 42.2018C104.363 42.1272 104.52 42.0013 104.632 41.8393C104.744 41.6774 104.807 41.4864 104.813 41.2895C104.82 41.1506 104.79 41.0123 104.726 40.8887C104.663 40.7651 104.567 40.6606 104.45 40.5859C104.04 40.3802 103.592 40.2605 103.134 40.2341L101.418 40.0082C100.452 39.8785 99.748 39.6383 99.3076 39.2875C99.0892 39.106 98.9162 38.876 98.8025 38.6158C98.6888 38.3556 98.6374 38.0724 98.6526 37.7888C98.642 37.3241 98.7994 36.8712 99.0959 36.5133C99.4308 36.1267 99.865 35.8389 100.351 35.681C100.963 35.477 101.606 35.3803 102.251 35.395C102.902 35.383 103.549 35.4916 104.161 35.7153C104.671 35.8985 105.128 36.2051 105.491 36.6077C105.819 36.9784 106.009 37.4513 106.029 37.9461H104.599C104.567 37.6675 104.441 37.4081 104.241 37.2111C104.011 36.9881 103.732 36.8217 103.426 36.7249C103.036 36.6001 102.628 36.5402 102.219 36.5476C101.677 36.5241 101.138 36.6341 100.649 36.8679C100.477 36.9421 100.331 37.064 100.227 37.2192C100.123 37.3744 100.066 37.5563 100.063 37.7431C100.061 37.8679 100.092 37.991 100.151 38.101C100.21 38.211 100.295 38.3043 100.4 38.3723C100.776 38.5693 101.189 38.687 101.613 38.7183L103.363 38.9643C103.944 39.0314 104.515 39.1658 105.065 39.3647C105.426 39.4892 105.738 39.7244 105.957 40.0368C106.147 40.3656 106.239 40.7415 106.223 41.1207C106.232 41.6104 106.066 42.0871 105.754 42.4649C105.403 42.8755 104.947 43.1837 104.436 43.3573C103.8 43.5781 103.13 43.6846 102.456 43.6719C101.763 43.6861 101.072 43.5677 100.423 43.3229C99.8832 43.1274 99.4034 42.7953 99.0301 42.3591C98.6897 41.9563 98.4908 41.453 98.4639 40.9263Z" fill="#192D36"/>
<path d="M107.035 40.9263H108.465C108.506 41.2429 108.646 41.5385 108.866 41.77C109.11 42.0312 109.416 42.2277 109.755 42.342C110.169 42.4804 110.603 42.5471 111.039 42.5393C111.63 42.5693 112.22 42.4534 112.755 42.2019C112.937 42.1272 113.094 42.0013 113.206 41.8394C113.319 41.6774 113.381 41.4864 113.387 41.2895C113.394 41.1506 113.364 41.0123 113.301 40.8887C113.237 40.7651 113.141 40.6606 113.024 40.586C112.615 40.3805 112.168 40.2608 111.711 40.2342L109.995 40.0082C109.029 39.8786 108.326 39.6383 107.887 39.2875C107.668 39.1065 107.495 38.8765 107.381 38.6162C107.268 38.3559 107.217 38.0725 107.232 37.7889C107.222 37.3247 107.378 36.8722 107.673 36.5133C108.008 36.1274 108.442 35.8398 108.928 35.6811C109.541 35.4769 110.185 35.3801 110.83 35.3951C111.481 35.3832 112.127 35.4918 112.738 35.7154C113.248 35.8978 113.706 36.2045 114.068 36.6077C114.396 36.9789 114.587 37.4513 114.608 37.9462H113.178C113.146 37.6672 113.019 37.4078 112.818 37.2112C112.588 36.9882 112.309 36.8217 112.003 36.725C111.613 36.6002 111.205 36.5403 110.796 36.5476C110.254 36.5245 109.715 36.6345 109.226 36.868C109.058 36.9448 108.914 37.0678 108.813 37.2227C108.712 37.3776 108.657 37.5581 108.654 37.7431C108.649 37.8734 108.679 38.0027 108.739 38.1181C108.8 38.2336 108.89 38.3311 109 38.4009C109.376 38.5979 109.789 38.7157 110.213 38.747L111.963 38.9929C112.549 39.0592 113.124 39.1936 113.679 39.3933C114.039 39.5186 114.35 39.7537 114.568 40.0654C114.759 40.3939 114.851 40.7701 114.834 41.1494C114.843 41.6385 114.678 42.1148 114.368 42.4936C114.016 42.9036 113.561 43.2117 113.05 43.3859C112.413 43.6067 111.742 43.7132 111.068 43.7005C110.374 43.7148 109.684 43.5963 109.034 43.3516C108.495 43.1553 108.015 42.8234 107.641 42.3878C107.281 41.9827 107.067 41.4678 107.035 40.9263Z" fill="#192D36"/>
<path d="M72.009 39.5159C70.9756 40.8505 69.9507 42.1852 68.9345 43.5199C68.1852 43.5199 67.4358 43.5199 66.6865 43.5199C67.7075 42.1871 68.74 40.8658 69.7582 39.533C68.74 38.2117 67.7075 36.8789 66.6865 35.5576C67.4358 35.5576 68.1852 35.5576 68.9345 35.5576C69.9565 36.8618 70.9813 38.1812 72.009 39.5159Z" fill="#192D36"/>
<path d="M67.6758 2.29909V19.236H68.9771V1.45825H68.8541L68.9771 1.37531V0.145508H15.0174L13.1928 1.45825L0.208361 10.8133L0.0625 10.9163V46.855H24.424V46.8321H54.454L54.434 11.7971L67.6758 2.29909ZM53.1327 45.5423H1.36666V12.126H53.1327V45.5423ZM2.44202 10.8133L15.4293 1.45825H66.589L53.5645 10.8133H2.44202Z" fill="#192D36"/>
</g>
<defs>
<clipPath id="clip0_63_19">
<rect width="115" height="47" fill="white"/>
</clipPath>
</defs>
</svg>
