<svg width="26" height="29" viewBox="0 0 26 29" fill="none" xmlns="http://www.w3.org/2000/svg">
<path d="M1.44444 0H24.5556C24.9386 0 25.306 0.152767 25.5769 0.424695C25.8478 0.696623 26 1.06544 26 1.45V27.55C26 27.9346 25.8478 28.3034 25.5769 28.5753C25.306 28.8472 24.9386 29 24.5556 29H1.44444C1.06135 29 0.693954 28.8472 0.423068 28.5753C0.152182 28.3034 0 27.9346 0 27.55V1.45C0 1.06544 0.152182 0.696623 0.423068 0.424695C0.693954 0.152767 1.06135 0 1.44444 0ZM5.77778 14.5V17.4H8.66667V14.5H5.77778ZM5.77778 20.3V23.2H8.66667V20.3H5.77778ZM11.5556 14.5V17.4H14.4444V14.5H11.5556ZM11.5556 20.3V23.2H14.4444V20.3H11.5556ZM17.3333 14.5V23.2H20.2222V14.5H17.3333ZM5.77778 5.8V11.6H20.2222V5.8H5.77778Z" fill="white"/>
</svg>
