<svg width="86" height="109" viewBox="0 0 86 109" fill="none" xmlns="http://www.w3.org/2000/svg">
<path d="M43 0C31.5998 0.0133933 20.6704 4.52923 12.6093 12.5569C4.54814 20.5846 0.0134761 31.4686 2.69891e-05 42.8214C-0.0104546 52.0985 3.03234 61.1233 8.66257 68.5143C8.66257 68.5143 9.83529 70.052 10.0268 70.2739L43 109L75.9888 70.2544C76.1608 70.0481 77.3374 68.5143 77.3374 68.5143L77.3413 68.5026C82.9678 61.1143 86.009 52.094 86 42.8214C85.9865 31.4686 81.4519 20.5846 73.3907 12.5569C65.3296 4.52923 54.4002 0.0133933 43 0Z" fill="#D1141A"/>
<path d="M43.1035 58C37.069 53.146 31.0345 48.3323 25 43.5589C25 40.0392 25 36.5196 25 33C31.0259 37.7958 37 42.6453 43.0259 47.4277C49 42.6453 55.0259 37.7958 61 33C61 36.5196 61 40.0392 61 43.5589C55.1034 48.3591 49.1379 53.1729 43.1035 58Z" fill="white"/>
</svg>
