<svg width="86" height="109" viewBox="0 0 86 109" fill="none" xmlns="http://www.w3.org/2000/svg">
<path d="M43 0C31.5998 0.0133933 20.6704 4.52923 12.6093 12.5569C4.54814 20.5846 0.0134761 31.4686 2.69891e-05 42.8214C-0.0104546 52.0985 3.03234 61.1233 8.66257 68.5143C8.66257 68.5143 9.83529 70.052 10.0268 70.2739L43 109L75.9888 70.2544C76.1608 70.0481 77.3374 68.5143 77.3374 68.5143L77.3413 68.5026C82.9678 61.1143 86.009 52.094 86 42.8214C85.9865 31.4686 81.4519 20.5846 73.3907 12.5569C65.3296 4.52923 54.4002 0.0133933 43 0ZM43 58.3929C39.9074 58.3929 36.8843 57.4796 34.3129 55.7686C31.7415 54.0576 29.7374 51.6257 28.5539 48.7804C27.3704 45.9351 27.0608 42.8042 27.6641 39.7836C28.2674 36.763 29.7566 33.9885 31.9434 31.8108C34.1302 29.6331 36.9163 28.15 39.9495 27.5492C42.9827 26.9484 46.1266 27.2567 48.9838 28.4353C51.8409 29.6139 54.283 31.6097 56.0012 34.1704C57.7193 36.7311 58.6364 39.7417 58.6364 42.8214C58.6312 46.9496 56.9821 50.9073 54.0509 53.8264C51.1196 56.7455 47.1454 58.3877 43 58.3929Z" fill="#D1141A"/>
<path d="M43 58.3929C51.6357 58.3929 58.6364 51.4213 58.6364 42.8214C58.6364 34.2216 51.6357 27.25 43 27.25C34.3643 27.25 27.3636 34.2216 27.3636 42.8214C27.3636 51.4213 34.3643 58.3929 43 58.3929Z" fill="#D1141A"/>
<path d="M56 36V60H43.9863C43.9768 53.9912 43.9665 47.9794 43.9554 41.9644H42.476C42.4855 47.9825 42.4958 53.9944 42.5069 60H30.4884V41.9597H28.9995V60H17V36H56Z" fill="white"/>
<path d="M69.9237 25.7981L70 54.5L71 53.5L71 25.0961H70.8983L71 25.0268V24H26.3694L24.8602 25.0961L14.1206 32.9071L14 32.993V63H34.1497V62.9809H58.9878L58.9712 33.7285L69.9237 25.7981ZM57.8949 61.9039H15.0787V34.0031H57.8949V61.9039ZM15.9681 32.9071L26.71 25.0961H69.0248L58.2521 32.9071H15.9681Z" fill="white"/>
<path d="M70 54.5L59 63L58.5 61.5L70 53V54.5Z" fill="white"/>
</svg>
