<svg width="27" height="19" viewBox="0 0 27 19" fill="none" xmlns="http://www.w3.org/2000/svg">
<path d="M23.7216 0.0241531L13.1392 0.0483063L2.5567 0H2.55155C1.12887 0 0 1.25113 0 2.81626V15.9266C0 17.4917 1.12887 18.7428 2.55155 18.7428H23.7371C25.1598 18.7428 26.2887 17.4917 26.2887 15.9266V2.81626C26.2887 1.25113 25.1701 0.0241531 23.7216 0.0241531ZM22.8918 1.9564L13.4381 10.0574L13.4021 10.0863L13.3711 10.1202C13.2577 10.2361 13.1237 10.2506 13.0515 10.2506C12.9794 10.2506 12.8454 10.2313 12.7371 10.1105L12.7062 10.0767L3.6701 1.91776L13.1392 1.97573L22.8918 1.9564ZM23.7371 16.8106H2.55155C2.37113 16.8106 2.06186 16.4918 2.06186 15.9266V3.12542L11.2165 11.4148C11.6804 11.8978 12.3351 12.178 13.0309 12.1877H13.0619C13.7474 12.1877 14.3866 11.922 14.8557 11.4582L24.2371 3.41042V15.9266C24.2268 16.4918 23.9175 16.8106 23.7371 16.8106Z" fill="#D1141A"/>
</svg>
