<svg width="295" height="107" viewBox="0 0 295 107" fill="none" xmlns="http://www.w3.org/2000/svg">
<g clip-path="url(#clip0_41_2726)">
<path d="M14.8012 92.1305H12.356V91.1572H18.3143V92.1305H15.8552V98.8321H14.8012V92.1305Z" fill="white"/>
<mask id="mask0_41_2726" style="mask-type:luminance" maskUnits="userSpaceOnUse" x="-145" y="-131" width="592" height="372">
<path d="M446.803 -130.454H-144.873V240.312H446.803V-130.454Z" fill="white"/>
</mask>
<g mask="url(#mask0_41_2726)">
<path d="M25.9686 91.4964C26.5408 91.8326 27.0082 92.3221 27.3184 92.9099C27.6394 93.5371 27.7984 94.2351 27.7806 94.9398C27.7998 95.6626 27.6411 96.3789 27.3184 97.0254C27.0112 97.6226 26.5437 98.1218 25.9686 98.4668C25.3775 98.8189 24.7008 99.0001 24.0133 98.9905C23.4191 98.9978 22.8315 98.8644 22.2984 98.6012C21.7979 98.3577 21.3635 97.9968 21.0318 97.5491C21.0534 98.337 21.0642 99.026 21.0642 99.6161V102.638H20.0103V91.158H20.8007L21.0318 92.4233C21.3643 91.9722 21.8004 91.6082 22.303 91.362C22.8404 91.1026 23.4308 90.9725 24.0272 90.9819C24.709 90.973 25.3803 91.1508 25.9686 91.4964ZM25.4001 97.6186C25.8255 97.3651 26.1702 96.9954 26.3939 96.5527C26.6369 96.0719 26.759 95.539 26.7498 95.0001C26.7581 94.4584 26.636 93.9226 26.3939 93.4382C26.1721 92.9918 25.8272 92.6186 25.4001 92.363C24.9594 92.1026 24.4554 91.9695 23.944 91.9784C23.5558 91.9648 23.169 92.031 22.8073 92.1728C22.4456 92.3147 22.1167 92.5293 21.8408 92.8033C21.565 93.0859 21.3498 93.422 21.2083 93.791C21.0668 94.16 21.0021 94.5541 21.018 94.9491C21.0059 95.5047 21.1331 96.0545 21.3877 96.548C21.625 96.9986 21.9859 97.3717 22.4278 97.6233C22.8908 97.882 23.414 98.0131 23.944 98.0033C24.455 98.0136 24.9589 97.882 25.4001 97.6233" fill="white"/>
<path d="M34.7234 91.756C34.9929 92.0047 35.2037 92.3106 35.3405 92.6513C35.4772 92.9921 35.5364 93.3591 35.5139 93.7257V98.8237H34.7327L34.5431 97.4333C34.2588 97.9041 33.8553 98.291 33.3737 98.5549C32.8433 98.8367 32.2496 98.9771 31.6495 98.9627C31.0045 98.9978 30.3692 98.7931 29.8652 98.388C29.6462 98.1935 29.4736 97.9522 29.36 97.6819C29.2464 97.4116 29.1947 97.1192 29.2088 96.8262C29.1983 96.4312 29.2904 96.0403 29.476 95.6918C29.6615 95.3432 29.9342 95.049 30.2674 94.838C31.0984 94.3234 32.0652 94.073 33.0408 94.1196C33.5041 94.1145 33.9672 94.1377 34.4276 94.1891V93.6747C34.4425 93.4471 34.4034 93.2192 34.3134 93.0097C34.2234 92.8002 34.0851 92.6152 33.9099 92.4697C33.4962 92.1774 32.9961 92.0336 32.4908 92.0619C31.6111 92.0883 30.7479 92.3083 29.9623 92.7061L29.5971 91.8023C30.5301 91.3419 31.5528 91.0935 32.5925 91.0747C33.3598 91.034 34.1151 91.2782 34.7142 91.7606M33.6926 97.197C34.1836 96.6061 34.4446 95.8571 34.4276 95.0882C34.0134 95.0398 33.5966 95.0165 33.1795 95.0187C32.4436 94.979 31.7106 95.1391 31.0578 95.4822C30.8261 95.6078 30.6333 95.7948 30.5004 96.0229C30.3676 96.2509 30.2997 96.5112 30.3043 96.7752C30.296 96.9451 30.3276 97.1146 30.3967 97.27C30.4657 97.4254 30.5703 97.5623 30.7019 97.6697C31.0239 97.9013 31.4158 98.0142 31.8113 97.9895C32.1638 98.0048 32.5153 97.9417 32.8405 97.8047C33.1658 97.6676 33.4568 97.4601 33.6926 97.197Z" fill="white"/>
<path d="M44.4862 91.1572V98.8321H43.4277V95.4442H39.1657V98.8321H38.1118V91.1572H39.1657V94.4756H43.4277V91.1572H44.4862Z" fill="white"/>
<path d="M48.5819 98.5454C47.9916 98.2215 47.5021 97.7403 47.1674 97.155C46.7956 96.4909 46.6102 95.7381 46.6312 94.9768C46.6064 94.2306 46.7854 93.4918 47.1489 92.8402C47.4868 92.2527 47.9814 91.7712 48.5772 91.4499C49.1028 91.1777 49.679 91.0177 50.2694 90.9803C50.8598 90.9428 51.4515 91.0285 52.0071 91.2321C52.469 91.4168 52.8946 91.682 53.2644 92.0153L52.6959 92.7568C52.4134 92.4971 52.0839 92.2942 51.7251 92.159C51.3519 92.0314 50.9592 91.9702 50.5649 91.9782C50.0584 91.9712 49.5591 92.0992 49.1181 92.349C48.6844 92.5989 48.3302 92.9669 48.0965 93.4103C47.8416 93.894 47.7128 94.4344 47.7221 94.9814C47.7018 95.5401 47.8226 96.0949 48.0734 96.5943C48.3054 97.0395 48.6557 97.4116 49.0857 97.6695C49.5215 97.925 50.0185 98.0564 50.5233 98.0495C50.955 98.0608 51.3844 97.9835 51.7852 97.8224C52.1628 97.6507 52.5083 97.4156 52.8068 97.1272L53.3939 97.8919C53.0154 98.26 52.5718 98.5539 52.0857 98.7586C51.5569 98.9566 50.9951 99.051 50.4308 99.0367C49.7854 99.0408 49.1494 98.8814 48.5819 98.5732" fill="white"/>
<path d="M55.1548 91.1572H61.5107V98.8321H60.4521V92.1305H56.2087V98.8321H55.1548V91.1572Z" fill="white"/>
<path d="M65.5648 98.5124C64.9769 98.176 64.4961 97.6795 64.1781 97.0803C63.8472 96.4352 63.6746 95.7202 63.6746 94.9948C63.6746 94.2693 63.8472 93.5544 64.1781 92.9092C64.4965 92.3104 64.9772 91.8139 65.5648 91.4771C66.1969 91.1407 66.9016 90.9648 67.6172 90.9648C68.3328 90.9648 69.0375 91.1407 69.6696 91.4771C70.2634 91.8135 70.7517 92.3095 71.0794 92.9092C71.4155 93.5527 71.5911 94.2683 71.5911 94.9948C71.5911 95.7212 71.4155 96.4368 71.0794 97.0803C70.7523 97.6805 70.2638 98.1766 69.6696 98.5124C69.0375 98.8488 68.3328 99.0247 67.6172 99.0247C66.9016 99.0247 66.1969 98.8488 65.5648 98.5124ZM69.725 97.1823C70.247 96.5736 70.534 95.7975 70.534 94.9948C70.534 94.1921 70.247 93.4159 69.725 92.8073C69.4538 92.5253 69.1262 92.3041 68.7638 92.1579C68.4013 92.0117 68.0122 91.944 67.6218 91.9591C67.0996 91.9509 66.585 92.0855 66.1334 92.3484C65.6976 92.6061 65.3435 92.982 65.1118 93.4329C64.8643 93.9157 64.7389 94.452 64.7466 94.9948C64.7308 95.3945 64.7937 95.7934 64.9317 96.1688C65.0697 96.5441 65.2801 96.8885 65.5509 97.1823C65.8163 97.4632 66.1381 97.6845 66.4951 97.8315C66.8521 97.9785 67.2361 98.0479 67.6218 98.035C68.011 98.0483 68.3986 97.9791 68.7594 97.8322C69.1201 97.6853 69.446 97.4638 69.7158 97.1823" fill="white"/>
<path d="M79.6957 91.4964C80.2679 91.8326 80.7353 92.3221 81.0454 92.9099C81.3665 93.5371 81.5254 94.2351 81.5077 94.9399C81.5269 95.6626 81.3681 96.3789 81.0454 97.0254C80.7382 97.6226 80.2707 98.1218 79.6957 98.4668C79.1046 98.8189 78.4278 99.0001 77.7404 98.9905C77.1461 98.9978 76.5586 98.8644 76.0254 98.6012C75.525 98.3577 75.0905 97.9968 74.7589 97.5491C74.7804 98.337 74.7912 99.026 74.7912 99.6161V102.638H73.7373V91.1581H74.5324L74.7589 92.4418C75.0914 91.9908 75.5274 91.6267 76.03 91.3805C76.5675 91.1212 77.1579 90.9911 77.7542 91.0005C78.436 90.9915 79.1073 91.1694 79.6957 91.5149M79.1271 97.6372C79.5526 97.3837 79.8973 97.0139 80.1209 96.5712C80.3639 96.0905 80.4861 95.5575 80.4769 95.0187C80.4852 94.4769 80.3631 93.9412 80.1209 93.4568C79.8992 93.0104 79.5542 92.6372 79.1271 92.3816C78.6864 92.1212 78.1825 91.9881 77.671 91.9969C77.2829 91.9833 76.896 92.0495 76.5344 92.1914C76.1727 92.3333 75.8437 92.5478 75.5678 92.8219C75.2921 93.1045 75.0769 93.4406 74.9354 93.8096C74.7939 94.1786 74.7291 94.5727 74.745 94.9677C74.7342 95.5237 74.863 96.0735 75.1194 96.5666C75.3564 97.0173 75.7174 97.3905 76.1595 97.6418C76.6225 97.9006 77.1456 98.0317 77.6756 98.0219C78.1867 98.0321 78.6906 97.9006 79.1317 97.6418" fill="white"/>
<path d="M84.7202 92.1305H82.2795V91.1572H88.2333V92.1305H85.7741V98.8321H84.7202V92.1305Z" fill="white"/>
<path d="M96.3041 91.1572V98.8321H95.2501V95.4442H90.9882V98.8321H89.9297V91.1572H90.9882V94.4756H95.2501V91.1572H96.3041Z" fill="white"/>
<path d="M103.917 91.756C104.187 92.0047 104.398 92.3106 104.534 92.6513C104.671 92.9921 104.73 93.3591 104.708 93.7257V98.8237H103.927L103.737 97.4333C103.453 97.9041 103.049 98.291 102.568 98.5549C102.037 98.8367 101.443 98.9771 100.843 98.9627C100.198 98.9978 99.5631 98.7931 99.0591 98.388C98.8401 98.1935 98.6674 97.9522 98.5538 97.6819C98.4402 97.4116 98.3886 97.1192 98.4027 96.8262C98.3917 96.4317 98.483 96.0411 98.6678 95.6926C98.8525 95.344 99.1243 95.0496 99.4566 94.838C100.288 94.3234 101.254 94.073 102.23 94.1196C102.693 94.1145 103.156 94.1377 103.617 94.1891V93.6747C103.632 93.4471 103.593 93.2192 103.503 93.0097C103.413 92.8002 103.274 92.6152 103.099 92.4697C102.685 92.1774 102.185 92.0336 101.68 92.0619C100.8 92.0883 99.9371 92.3083 99.1515 92.7061L98.7863 91.8023C99.7193 91.3421 100.742 91.0937 101.782 91.0747C102.549 91.034 103.304 91.2782 103.903 91.7606M102.882 97.197C103.372 96.6059 103.633 95.857 103.617 95.0882C103.203 95.0398 102.786 95.0166 102.369 95.0187C101.633 94.979 100.9 95.1391 100.247 95.4822C100.015 95.6078 99.8225 95.7948 99.6897 96.0229C99.5568 96.2509 99.489 96.5112 99.4936 96.7752C99.4852 96.9451 99.5168 97.1146 99.5859 97.27C99.655 97.4254 99.7595 97.5623 99.8911 97.6697C100.213 97.9013 100.605 98.0142 101 97.9895C101.353 98.0048 101.704 97.9417 102.03 97.8047C102.355 97.6676 102.646 97.4601 102.882 97.197Z" fill="white"/>
<path d="M112.88 91.1577V98.8325H111.827V95.8803H109.904L107.703 98.8325H106.492V98.7445L108.762 95.7598C108.265 95.6482 107.821 95.3723 107.5 94.9765C107.165 94.4979 107.009 93.9163 107.06 93.3339C107.111 92.7515 107.365 92.2058 107.777 91.7926C108.335 91.3446 109.038 91.1186 109.751 91.1577H112.885H112.88ZM111.827 94.9626V92.117H109.765C109.312 92.0801 108.863 92.2177 108.508 92.5017C108.369 92.6399 108.261 92.8058 108.191 92.9888C108.121 93.1717 108.09 93.3674 108.101 93.563C108.09 93.7545 108.121 93.9461 108.191 94.1246C108.261 94.303 108.369 94.464 108.508 94.5965C108.865 94.8747 109.314 95.0086 109.765 94.9719H111.827V94.9626Z" fill="white"/>
<path d="M118.335 97.9839C118.623 97.9781 118.907 97.9061 119.163 97.7736C119.419 97.641 119.642 97.4514 119.814 97.2192C120.16 96.6028 120.347 95.9101 120.36 95.2032L120.688 91.1572H125.643V98.8321H124.585V92.1444H121.64L121.395 95.1151C121.356 95.8236 121.216 96.5229 120.979 97.1914C120.802 97.6778 120.479 98.0972 120.055 98.3918C119.566 98.6932 119.016 98.8801 118.446 98.9387L118.335 97.9839Z" fill="white"/>
<path d="M129.683 98.5124C129.095 98.176 128.614 97.6795 128.296 97.0803C127.965 96.4352 127.793 95.7202 127.793 94.9948C127.793 94.2693 127.965 93.5544 128.296 92.9092C128.615 92.3105 129.096 91.8141 129.683 91.4771C130.315 91.1407 131.02 90.9648 131.735 90.9648C132.451 90.9648 133.156 91.1407 133.788 91.4771C134.382 91.8135 134.87 92.3095 135.198 92.9092C135.534 93.5527 135.709 94.2683 135.709 94.9948C135.709 95.7212 135.534 96.4368 135.198 97.0803C134.87 97.6805 134.382 98.1766 133.788 98.5124C133.156 98.8488 132.451 99.0247 131.735 99.0247C131.02 99.0247 130.315 98.8488 129.683 98.5124ZM133.843 97.1823C134.365 96.5736 134.652 95.7975 134.652 94.9948C134.652 94.1921 134.365 93.4159 133.843 92.8073C133.572 92.5253 133.244 92.3041 132.882 92.1579C132.52 92.0117 132.13 91.944 131.74 91.9591C131.218 91.9509 130.703 92.0855 130.252 92.3484C129.816 92.6061 129.462 92.982 129.23 93.4329C128.982 93.9157 128.857 94.452 128.865 94.9948C128.849 95.3945 128.912 95.7934 129.05 96.1688C129.188 96.5441 129.398 96.8885 129.669 97.1823C129.934 97.4635 130.256 97.6849 130.613 97.8319C130.97 97.979 131.354 98.0482 131.74 98.035C132.129 98.0483 132.517 97.9791 132.878 97.8322C133.238 97.6853 133.564 97.4638 133.834 97.1823" fill="white"/>
<path d="M137.855 91.1572H142.811V92.1305H138.914V98.8321H137.855V91.1572Z" fill="white"/>
<path d="M151.002 91.1572V98.8321H149.943V94.1419C149.943 93.748 149.943 93.456 149.943 93.2567C149.688 93.5811 149.446 93.87 149.218 94.1233L144.937 98.8274H144.558V91.1572H145.612V95.7084C145.612 95.9525 145.601 96.2939 145.58 96.7326C145.765 96.5009 146.053 96.1641 146.444 95.7223L150.604 91.1572H150.983H151.002Z" fill="white"/>
<path d="M155.097 98.5454C154.507 98.2215 154.018 97.7403 153.683 97.155C153.311 96.4909 153.126 95.7381 153.147 94.9768C153.127 94.2289 153.313 93.49 153.683 92.8402C154.021 92.2527 154.515 91.7712 155.111 91.4499C155.637 91.1777 156.213 91.0177 156.803 90.9803C157.394 90.9428 157.985 91.0285 158.541 91.2321C159.003 91.417 159.428 91.6821 159.798 92.0153L159.193 92.7429C158.91 92.4832 158.581 92.2803 158.222 92.1451C157.849 92.0177 157.456 91.9565 157.062 91.9643C156.555 91.9573 156.056 92.0853 155.615 92.3351C155.182 92.5854 154.828 92.9533 154.593 93.3964C154.339 93.8801 154.21 94.4205 154.219 94.9675C154.208 95.5235 154.337 96.0733 154.593 96.5664C154.826 97.0115 155.176 97.3836 155.606 97.6417C156.042 97.8972 156.539 98.0286 157.043 98.0217C157.475 98.0329 157.904 97.9557 158.305 97.7946C158.683 97.6231 159.028 97.388 159.327 97.0994L159.914 97.8641C159.535 98.2322 159.092 98.5261 158.606 98.7308C158.077 98.9288 157.515 99.0232 156.951 99.0089C156.305 99.013 155.669 98.8536 155.102 98.5454" fill="white"/>
<path d="M163.108 92.1305H160.667V91.1572H166.626V92.1305H164.167V98.8321H163.108V92.1305Z" fill="white"/>
<path d="M174.729 91.1572V98.8321H173.675V94.1419C173.675 93.748 173.675 93.456 173.675 93.2567C173.419 93.5811 173.177 93.87 172.949 94.1233L168.72 98.8321H168.341V91.1572H169.395V95.7084C169.395 95.9525 169.384 96.2939 169.362 96.7326C169.547 96.5009 169.835 96.1641 170.227 95.7223L174.387 91.1572H174.729Z" fill="white"/>
<path d="M183.442 98.744V98.8321H182.125L178.506 95.2727V98.8321H177.447V91.1572H178.506V94.5266L181.815 91.1572H183.096V91.2082L179.458 94.8741L183.442 98.744Z" fill="white"/>
<path d="M189.669 91.7557C189.937 92.0049 190.147 92.311 190.283 92.6517C190.419 92.9924 190.478 93.3592 190.455 93.7254V98.8234H189.673L189.484 97.4331C189.2 97.904 188.796 98.2909 188.314 98.5546C187.784 98.8364 187.19 98.9768 186.59 98.9625C185.945 98.9975 185.31 98.7929 184.806 98.3878C184.587 98.1933 184.414 97.952 184.301 97.6817C184.187 97.4113 184.135 97.1189 184.149 96.8259C184.139 96.431 184.231 96.0401 184.417 95.6915C184.602 95.343 184.875 95.0488 185.208 94.8377C186.039 94.3231 187.006 94.0727 187.982 94.1194C188.445 94.1142 188.908 94.1374 189.368 94.1889V93.6744C189.383 93.4468 189.344 93.2189 189.254 93.0094C189.164 92.8 189.026 92.6149 188.851 92.4694C188.437 92.1771 187.937 92.0334 187.431 92.0616C186.551 92.086 185.686 92.3043 184.898 92.7012L184.533 91.7974C185.466 91.3371 186.489 91.0886 187.529 91.0698C188.296 91.0291 189.051 91.2733 189.65 91.7557M188.629 97.1921C189.12 96.6012 189.381 95.8522 189.364 95.0833C188.949 95.0349 188.533 95.0117 188.116 95.0138C187.38 94.9741 186.647 95.1342 185.994 95.4773C185.762 95.6029 185.569 95.79 185.436 96.018C185.304 96.246 185.236 96.5063 185.24 96.7703C185.232 96.9402 185.264 97.1097 185.333 97.2651C185.402 97.4205 185.506 97.5574 185.638 97.6648C185.96 97.8964 186.352 98.0093 186.747 97.9846C187.1 97.9999 187.451 97.9368 187.777 97.7998C188.102 97.6628 188.393 97.4552 188.629 97.1921Z" fill="white"/>
<path d="M12.3555 77.5365V52.5654H21.9147C24.454 52.5654 26.4802 53.361 27.9933 54.9522C28.7253 55.6977 29.3027 56.5812 29.6923 57.5517C30.0818 58.5221 30.2758 59.5604 30.2629 60.6064C30.282 61.6378 30.0923 62.6624 29.7054 63.6183C29.3185 64.5742 28.7424 65.4415 28.0118 66.1679C26.511 67.7128 24.454 68.4852 21.8408 68.4852H16.6775V77.555H12.3555V77.5365ZM16.6775 64.7219H21.3647C22.8284 64.7219 23.9517 64.3187 24.7344 63.5123C25.4932 62.7071 25.9128 61.6395 25.906 60.5318C25.8991 59.4241 25.4662 58.3618 24.6975 57.5661C24.2693 57.1531 23.7613 56.8323 23.2049 56.6235C22.6484 56.4146 22.0552 56.3222 21.4617 56.3519H16.6775V64.7219Z" fill="white"/>
<path d="M46.5569 67.5863L52.9637 77.4255V77.5368H48.0223L42.198 68.0637H38.426V77.5368H34.104V52.5657H43.8805C46.1182 52.4811 48.3 53.2779 49.9591 54.7856C50.7304 55.4873 51.3423 56.3471 51.753 57.3066C52.1638 58.2662 52.3638 59.3032 52.3397 60.3471C52.3681 62.0003 51.8168 63.611 50.7819 64.8983C49.6974 66.2255 48.2136 67.1652 46.5523 67.5771M38.426 64.458H43.4506C44.6579 64.5284 45.8475 64.1413 46.7834 63.3735C47.1886 62.9996 47.5066 62.5408 47.7151 62.0298C47.9236 61.5188 48.0175 60.9681 47.9899 60.4166C48.0063 59.8628 47.9032 59.3119 47.6878 58.8016C47.4725 58.2913 47.1498 57.8336 46.7418 57.4598C45.8549 56.6664 44.6936 56.2522 43.5061 56.3058H38.4214V64.458H38.426Z" fill="white"/>
<path d="M68.3058 78.0093C64.5462 78.0093 61.446 76.7734 59.0054 74.3017C57.8024 73.0846 56.8578 71.6359 56.2286 70.0428C55.5994 68.4497 55.2986 66.7453 55.3444 65.0325C55.3444 61.2878 56.5524 58.1981 58.9684 55.7634C61.3844 53.3287 64.4969 52.1113 68.3058 52.1113C72.1394 52.1113 75.258 53.3225 77.6617 55.7448C80.0654 58.1672 81.2672 61.2569 81.2672 65.014C81.3141 66.7237 81.0175 68.4254 80.3949 70.0179C79.7723 71.6103 78.8365 73.0608 77.6432 74.2831C75.2272 76.7549 72.1147 77.9908 68.3058 77.9908M68.3058 74.0607C69.4673 74.1058 70.6246 73.8961 71.6969 73.4463C72.7692 72.9964 73.7305 72.3171 74.5138 71.456C76.0988 69.6861 76.9444 67.3731 76.8759 64.9954C76.8759 62.3754 76.0947 60.2218 74.5323 58.5348C72.9699 56.8479 70.8944 56.0028 68.3058 55.9997C65.7419 55.9997 63.6787 56.8448 62.1163 58.5348C60.5539 60.2249 59.7727 62.3785 59.7727 64.9954C59.7041 67.3731 60.5498 69.6861 62.1348 71.456C62.9118 72.3153 63.8666 72.9941 64.9325 73.4448C65.9985 73.8955 67.1497 74.1073 68.3058 74.0653" fill="white"/>
<path d="M85.8804 77.5365V52.5654H95.435C97.9743 52.5654 100 53.361 101.514 54.9522C102.246 55.6976 102.823 56.581 103.213 57.5515C103.602 58.522 103.796 59.5603 103.783 60.6064C103.802 61.6378 103.613 62.6624 103.226 63.6183C102.839 64.5742 102.263 65.4415 101.532 66.1679C100.031 67.7128 97.9743 68.4852 95.3611 68.4852H90.2024V77.555H85.8804V77.5365ZM90.2024 64.7219H94.8896C96.3533 64.7219 97.4766 64.3187 98.2594 63.5123C99.0181 62.7071 99.4377 61.6395 99.4309 60.5318C99.424 59.4241 98.9911 58.3618 98.2224 57.5661C97.7942 57.1531 97.2862 56.8323 96.7298 56.6235C96.1733 56.4146 95.5801 56.3222 94.9866 56.3519H90.2024V64.7219Z" fill="white"/>
<path d="M119.259 78.0098C115.5 78.0098 112.4 76.7739 109.959 74.3021C108.756 73.0853 107.811 71.6366 107.182 70.0434C106.553 68.4503 106.252 66.7459 106.298 65.033C106.298 61.2883 107.506 58.1985 109.922 55.7639C112.338 53.3292 115.451 52.1087 119.259 52.1025C123.093 52.1025 126.212 53.3137 128.615 55.736C131.019 58.1584 132.221 61.2481 132.221 65.0052C132.268 66.7149 131.971 68.4167 131.349 70.0091C130.726 71.6015 129.79 73.052 128.597 74.2743C126.181 76.7461 123.068 77.982 119.259 77.982M119.259 74.0519C120.421 74.097 121.578 73.8874 122.651 73.4375C123.723 72.9876 124.684 72.3084 125.467 71.4472C127.052 69.6773 127.898 67.3643 127.83 64.9866C127.83 62.3666 127.048 60.213 125.486 58.5261C123.924 56.8391 121.848 56.0048 119.259 56.0234C116.696 56.0234 114.632 56.8684 113.07 58.5585C111.508 60.2486 110.726 62.4021 110.726 65.0191C110.658 67.3967 111.503 69.7098 113.088 71.4797C113.866 72.3384 114.821 73.0165 115.887 73.4664C116.953 73.9163 118.104 74.1272 119.259 74.0843" fill="white"/>
<path d="M141.137 52.5703H136.815V77.5367H141.137V52.5703Z" fill="white"/>
<path d="M164.13 52.5655H168.415V77.6756H166.727L153.29 62.9563C152.057 61.6586 151.361 60.9124 151.201 60.7178C151.296 61.9536 151.345 62.8589 151.349 63.4336V77.532H147.063V52.4219H148.709L161.744 66.7381C162.845 67.8874 163.663 68.7804 164.199 69.4168C164.15 67.8009 164.125 66.6871 164.125 66.0753V52.5655H164.13Z" fill="white"/>
<path d="M190.454 52.5703V56.5699H183.391V77.5367H179.069V56.5699H172.039V52.5703H190.454Z" fill="white"/>
<path d="M208.607 7.20703H263.392L289.366 51.6618C289.503 51.9 289.575 52.1701 289.575 52.4451C289.575 52.7201 289.503 52.9902 289.366 53.2283L263.388 98.9715L208.607 7.20703Z" fill="white"/>
<path d="M208.607 98.9711L236 53.0889L263.392 98.9711H208.607Z" fill="white"/>
<path d="M232.533 58.8821L236 53.0889L259.727 92.8349L232.533 58.8821Z" fill="#636363"/>
</g>
</g>
<defs>
<clipPath id="clip0_41_2726">
<rect width="294.743" height="105.923" fill="white" transform="translate(0 0.658203)"/>
</clipPath>
</defs>
</svg>
