<svg width="318" height="84" viewBox="0 0 318 84" fill="none" xmlns="http://www.w3.org/2000/svg">
<g clip-path="url(#clip0_41_2765)">
<path d="M1.47803 41.1491C1.47803 33.4634 7.29826 28.2774 14.9466 28.2774C17.2136 28.1935 19.4547 28.783 21.387 29.9716C23.3192 31.1602 24.8561 32.8945 25.8036 34.9557L20.2819 37.5674C19.8313 36.5174 19.0893 35.6186 18.1438 34.9772C17.1983 34.3358 16.0888 33.9788 14.9466 33.9484C14.0103 33.9384 13.0818 34.1199 12.2181 34.4816C11.3543 34.8434 10.5736 35.3777 9.92384 36.052C9.27404 36.7262 8.76885 37.5262 8.43925 38.4026C8.10966 39.2791 7.96261 40.2137 8.00713 41.1491C7.96261 42.0844 8.10966 43.019 8.43925 43.8955C8.76885 44.772 9.27404 45.5719 9.92384 46.2461C10.5736 46.9204 11.3543 47.4548 12.2181 47.8165C13.0818 48.1782 14.0103 48.3597 14.9466 48.3497C16.0888 48.3193 17.1983 47.9623 18.1438 47.3209C19.0893 46.6796 19.8313 45.7807 20.2819 44.7307L25.8036 47.3424C24.8482 49.3975 23.3095 51.1263 21.3791 52.3137C19.4487 53.5012 17.2118 54.0948 14.9466 54.0207C7.29826 54.0207 1.47803 48.7974 1.47803 41.1491Z" fill="white"/>
<path d="M34.1235 53.5737V34.2849H27.1467V28.6885H47.5082V34.2849H40.5407V53.5737H34.1235Z" fill="white"/>
<path d="M49.2712 41.1491C49.2712 33.4634 55.0915 28.2775 62.7399 28.2775C65.0115 28.188 67.2587 28.7748 69.1964 29.9637C71.1342 31.1527 72.6755 32.8901 73.6248 34.9558L68.1031 37.5674C67.6525 36.5175 66.9105 35.6186 65.965 34.9773C65.0195 34.3359 63.91 33.9789 62.7678 33.9485C61.8315 33.9385 60.903 34.12 60.0393 34.4817C59.1755 34.8434 58.3948 35.3778 57.745 36.0521C57.0952 36.7263 56.59 37.5262 56.2604 38.4027C55.9309 39.2792 55.7838 40.2138 55.8283 41.1491C55.7838 42.0845 55.9309 43.0191 56.2604 43.8955C56.59 44.772 57.0952 45.5719 57.745 46.2462C58.3948 46.9204 59.1755 47.4548 60.0393 47.8166C60.903 48.1783 61.8315 48.3598 62.7678 48.3498C63.91 48.3194 65.0195 47.9624 65.965 47.321C66.9105 46.6796 67.6525 45.7808 68.1031 44.7308L73.6248 47.3425C72.6694 49.3976 71.1307 51.1264 69.2003 52.3138C67.2699 53.5012 65.033 54.0949 62.7678 54.0208C55.0915 54.0208 49.2712 48.7975 49.2712 41.1491Z" fill="white"/>
<path d="M75.2383 46.932V42.1191H84.1925V46.932H75.2383Z" fill="white"/>
<path d="M86.1699 48.3504C88.483 48.3504 89.9754 46.97 90.6843 41.299L92.1767 28.6885H110.71V53.5737H104.302V34.2849H97.9596L97.0268 41.7467C95.8329 51.8202 91.5797 53.9841 86.1326 53.9841L86.1699 48.3504Z" fill="white"/>
<path d="M113.928 41.149C113.928 33.5752 119.636 28.2773 127.247 28.2773C134.858 28.2773 140.52 33.5752 140.52 41.149C140.52 48.7228 134.858 54.0207 127.247 54.0207C119.636 54.0207 113.928 48.7228 113.928 41.149ZM134 41.149C134 37.0823 131.351 33.9483 127.247 33.9483C123.143 33.9483 120.457 37.0823 120.457 41.149C120.457 45.2157 123.106 48.3497 127.247 48.3497C131.389 48.3497 134 45.1784 134 41.149Z" fill="white"/>
<path d="M143.775 53.5737V28.6885H162.01V34.2849H150.193V53.5737H143.775Z" fill="white"/>
<path d="M165.489 53.5737V28.6885H171.906V43.351L181.971 28.6885H188.612V53.5737H182.157V38.2023L171.683 53.5737H165.489Z" fill="white"/>
<path d="M191.83 41.1497C191.83 33.464 197.65 28.278 205.298 28.278C207.564 28.196 209.803 28.7864 211.733 29.9749C213.664 31.1634 215.199 32.8967 216.146 34.9564L210.624 37.568C210.175 36.5188 209.435 35.6203 208.491 34.9788C207.547 34.3374 206.439 33.98 205.298 33.949C204.362 33.9391 203.433 34.1205 202.57 34.4823C201.706 34.844 200.925 35.3784 200.275 36.0526C199.626 36.7269 199.12 37.5268 198.791 38.4033C198.461 39.2798 198.314 40.2143 198.359 41.1497C198.314 42.085 198.461 43.0196 198.791 43.8961C199.12 44.7726 199.626 45.5725 200.275 46.2467C200.925 46.921 201.706 47.4554 202.57 47.8171C203.433 48.1789 204.362 48.3603 205.298 48.3504C206.439 48.3193 207.547 47.9619 208.491 47.3205C209.435 46.6791 210.175 45.7806 210.624 44.7314L216.146 47.343C215.191 49.3966 213.654 51.1244 211.725 52.3118C209.797 53.4991 207.562 54.0936 205.298 54.0214C197.678 54.0214 191.83 48.7981 191.83 41.1497Z" fill="white"/>
<path d="M224.475 53.5737V34.2849H217.498V28.6885H237.785V34.2849H230.883V53.5737H224.475Z" fill="white"/>
<path d="M240.891 53.5737V28.6885H247.308V43.351L257.372 28.6885H264.013V53.5737H257.559V38.2023L247.112 53.5737H240.891Z" fill="white"/>
<path d="M283.116 53.5737L276.587 44.2464L274.908 46.3357V53.611H268.5V28.6885H274.908V38.9485L282.556 28.6885H290.466L280.803 40.3289L290.951 53.5737H283.116Z" fill="white"/>
<path d="M309.792 53.5737L308.561 49.992H298.758L297.48 53.5737H290.214L299.541 28.6885H307.591L317.067 53.5737H309.792ZM303.636 35.031L300.474 44.3583H306.807L303.636 35.031Z" fill="white"/>
</g>
<defs>
<clipPath id="clip0_41_2765">
<rect width="317.128" height="83.9457" fill="white" transform="translate(0.871826 0.0439453)"/>
</clipPath>
</defs>
</svg>
