<svg width="299" height="59" viewBox="0 0 299 59" fill="none" xmlns="http://www.w3.org/2000/svg">
<g clip-path="url(#clip0_41_2711)">
<mask id="mask0_41_2711" style="mask-type:luminance" maskUnits="userSpaceOnUse" x="1" y="0" width="297" height="58">
<path d="M297.726 0.192383H1.91113V57.5348H297.726V0.192383Z" fill="white"/>
</mask>
<g mask="url(#mask0_41_2711)">
<path d="M184.53 8.97949L177.559 49.3969H193.682C193.682 49.3969 206.467 49.7819 209.151 37.3371C212.009 24.0832 198.148 23.8641 198.148 23.8641L191.393 23.9735L192.483 18.106H209.151L210.894 8.97949H184.53ZM196.069 32.6493C197.074 32.6488 200.272 32.9063 200.053 36.2283C199.784 40.2743 195.974 40.5151 195.974 40.5151H188.662L189.889 32.7121L195.771 32.6579C195.771 32.6579 195.883 32.6494 196.069 32.6493Z" fill="white"/>
<path d="M55.1193 9.52669H64.0548L61.1277 26.7744L76.6492 9.33461H87.2023L69.7936 29.0792L80.5008 49.4381H70.1787L60.7041 30.7693L57.3918 49.4381H48.0711L55.1193 9.52669ZM18.1706 9.57737L47.9783 9.47889L46.3988 18.1286L36.1133 18.052L30.4396 49.506L21.4524 49.4516L27.0217 18.1064L16.7953 18.0656L18.1706 9.57737ZM9.65986 4.68815L2.03428 51.9777C2.03428 51.9777 1.5871 53.8672 2.39702 55.5497C3.42494 57.6851 5.41133 57.5325 5.41133 57.5325L83.1879 57.3943C83.1879 57.3943 84.5353 57.5296 86.4276 55.9854C87.9274 54.7617 88.1854 53.0716 88.1854 53.0716L95.5739 4.39072C95.5739 4.39072 95.9681 2.68721 94.8174 1.53897C93.4883 0.21282 91.8796 0.192383 91.8796 0.192383L15.9782 0.36934C15.9782 0.36934 13.4676 0.385928 11.8413 1.4892C10.2299 2.58245 9.65986 4.68815 9.65986 4.68815Z" fill="white"/>
<path d="M106.132 9.06577L99.0649 49.8224H106.46L125.871 27.6963L121.635 49.5918H131.34L138.581 9.10417H131.186L112.006 30.4619L115.857 9.02734L106.132 9.06577Z" fill="white"/>
<path d="M220.945 9.0277L213.877 49.7842H221.273L240.685 27.6581L236.447 49.5538H246.153L253.393 9.06609H245.999L226.819 30.4239L230.67 8.98926L220.945 9.0277Z" fill="white"/>
<path d="M147.819 8.87109L140.739 49.2885H150.324L152.504 36.6852L159.16 36.6082C159.16 36.6082 171.558 37.0829 174.4 24.2991C177.768 9.15053 163.046 8.97961 163.046 8.97961L147.819 8.87109ZM161.746 17.6059C162.642 17.5824 166.205 17.7965 165.903 22.7239C165.564 28.2259 159.476 28.048 159.476 28.048L153.974 28.0472L155.663 17.6719L161.545 17.6168C161.545 17.6168 161.618 17.6092 161.746 17.6059Z" fill="white"/>
<path d="M289.098 22.1643C297.88 17.2475 297.726 17.5548 297.726 17.5548C297.726 17.5548 292.606 7.50554 281.675 7.91968C268.496 8.41892 260.573 16.1175 258.113 26.1253C253.622 44.3938 266.749 50.0912 274.308 50.1294C287.852 50.1978 293.72 40.7565 293.72 40.7565L286.787 35.9933C286.787 35.9933 283.59 41.1185 276.773 41.2174C270.388 41.3099 265.202 37.4462 267.068 28.1568C268.228 22.376 273.68 17.4571 281.01 17.3243C286.785 17.2198 289.098 22.1643 289.098 22.1643Z" fill="white"/>
</g>
</g>
<defs>
<clipPath id="clip0_41_2711">
<rect width="297.541" height="57.8292" fill="white" transform="translate(0.865234 0.192383)"/>
</clipPath>
</defs>
</svg>
