<svg width="23" height="23" viewBox="0 0 23 23" fill="none" xmlns="http://www.w3.org/2000/svg">
<path fill-rule="evenodd" clip-rule="evenodd" d="M22.9227 11.1701C22.9227 5.04086 17.9026 0.0761719 11.7239 0.0761719C5.54529 0.0761719 0.525147 5.04086 0.525147 11.1701C0.525147 13.2847 1.12756 15.2614 2.16249 16.9469L0.123535 22.877L6.31763 20.9003C7.92407 21.7737 9.76222 22.2794 11.7239 22.2794C17.9026 22.2794 22.9227 17.2994 22.9227 11.1701ZM9.56141 7.64579C9.40695 7.27804 9.23703 6.86431 9.11346 6.63447C9.00533 6.40462 8.95899 6.34333 8.89721 6.28203C8.83542 6.22074 8.77364 6.17477 8.60372 6.15945C8.43381 6.1288 8.15577 6.1288 7.97041 6.14413C7.78505 6.14413 7.70782 6.15945 7.58425 6.22074C7.47612 6.28203 7.3371 6.37397 7.19808 6.49656C7.05906 6.61914 6.93549 6.75705 6.81192 6.92561C6.68834 7.09416 6.58022 7.27804 6.48754 7.47724C6.39486 7.67644 6.33307 7.89096 6.30218 8.10549C6.27129 8.32001 6.27129 8.51921 6.27129 8.70309C6.27129 8.88696 6.27129 9.0402 6.28673 9.20875C6.30218 9.3773 6.34852 9.56118 6.4103 9.77571C6.48754 9.99023 6.59566 10.2354 6.6729 10.404C6.76558 10.5878 6.82736 10.6951 6.93549 10.879C7.05906 11.0628 7.22897 11.3387 7.44523 11.6451C7.66148 11.9516 7.92407 12.304 8.15577 12.5952C8.38747 12.8863 8.60372 13.1161 8.83542 13.3613C9.06712 13.6065 9.34516 13.867 9.63865 14.1121C9.93213 14.3573 10.2565 14.6025 10.5345 14.8017C10.8126 15.0009 11.0443 15.1388 11.3069 15.2767C11.5695 15.4146 11.8475 15.5525 12.1719 15.6904C12.4963 15.8283 12.8515 15.9509 13.1914 16.0735C13.5312 16.1961 13.871 16.288 14.1799 16.334C14.4889 16.3953 14.7824 16.3953 15.045 16.38C15.2921 16.3646 15.5084 16.3187 15.6474 16.2574C15.8018 16.2114 15.8791 16.1654 16.0181 16.0888C16.1571 16.0275 16.3425 15.9356 16.4969 15.8283C16.6514 15.7211 16.7904 15.5985 16.8986 15.4912C17.0067 15.3686 17.0839 15.2614 17.1457 15.1388C17.2075 15.0009 17.2693 14.8477 17.3156 14.7097C17.3619 14.5718 17.3774 14.4646 17.4083 14.3267C17.4237 14.1888 17.4392 14.0202 17.4392 13.9129C17.4392 13.8057 17.4237 13.775 17.3002 13.6984C17.1766 13.6218 16.9449 13.4992 16.5587 13.3C16.1726 13.1008 15.6165 12.8403 15.2921 12.6871C14.9677 12.5339 14.875 12.5185 14.7824 12.5032C14.7051 12.4879 14.6433 12.4879 14.5816 12.5185C14.5198 12.5492 14.458 12.5952 14.3808 12.6718C14.3035 12.7484 14.2263 12.8557 14.1027 13.0242C13.9791 13.1928 13.8247 13.4073 13.7011 13.5452C13.5775 13.6831 13.5157 13.7444 13.4385 13.775C13.3613 13.8057 13.2686 13.821 13.1914 13.8363C13.0987 13.8363 13.0215 13.8363 12.8515 13.775C12.6816 13.7137 12.4345 13.5912 12.2028 13.4686C11.9711 13.346 11.7239 13.2081 11.5077 13.0702C11.2914 12.9323 11.0752 12.779 10.8589 12.5952C10.6272 12.396 10.3801 12.1508 10.1947 11.9516C10.0094 11.7371 9.87035 11.5532 9.73133 11.3693C9.59231 11.1854 9.43784 11.0016 9.34516 10.8483C9.23703 10.6951 9.17525 10.5725 9.14435 10.4806C9.11346 10.3886 9.11346 10.3273 9.11346 10.2814C9.11346 10.2201 9.12891 10.1741 9.22159 10.0515C9.31427 9.92894 9.48418 9.72974 9.6232 9.5765C9.76222 9.40795 9.87035 9.28537 9.93213 9.16278C9.99392 9.05552 10.0094 8.96358 10.0094 8.88696C10.0094 8.79503 10.0094 8.71841 9.94758 8.51921C9.87035 8.33533 9.71588 8.01355 9.56141 7.64579ZM11.7239 1.86898C16.914 1.86898 21.1155 6.03686 21.1155 11.1854C21.1155 16.334 16.914 20.5019 11.7239 20.5019C9.83945 20.5019 8.09398 19.9503 6.61111 19.0002L4.49493 19.6591L2.87303 20.1801L3.41366 18.6171L4.07787 16.5945L4.06242 16.5792V16.5638L4.04697 16.5332C2.96571 15.0162 2.3324 13.1621 2.3324 11.1701C2.3324 6.03686 6.53388 1.86898 11.7239 1.86898Z" fill="#D73136"/>
<path d="M0 23L2.06985 16.9627C1.01948 15.2159 0.447952 13.2239 0.447952 11.1706C0.447952 5.01066 5.51444 0 11.724 0C17.9335 0 23 5.01066 23 11.1706C23 17.3304 17.949 22.3411 11.724 22.3411C9.82404 22.3411 7.955 21.8661 6.30222 20.962L0 23ZM11.724 0.153231C5.59167 0.153231 0.602418 5.1026 0.602418 11.1706C0.602418 13.1932 1.1585 15.1852 2.22431 16.9014L2.23976 16.932L2.22431 16.9627L0.247146 22.7548L6.31766 20.8088L6.34856 20.8241C7.9859 21.7282 9.83949 22.1879 11.724 22.1879C17.8563 22.1879 22.8455 17.2385 22.8455 11.1706C22.8455 5.1026 17.8563 0.153231 11.724 0.153231ZM11.724 20.5636C9.90128 20.5636 8.12492 20.0426 6.61115 19.0773L4.52586 19.7209L2.76494 20.2878L3.35191 18.5869L4.00067 16.5949L3.98522 16.5796C2.85762 14.986 2.2552 13.1319 2.2552 11.1706C2.2552 5.99134 6.50302 1.77748 11.724 1.77748C16.9449 1.77748 21.1927 5.99134 21.1927 11.1706C21.1927 16.3498 16.9449 20.5636 11.724 20.5636ZM6.6266 18.9087L6.65749 18.924C8.17126 19.8894 9.91672 20.4104 11.724 20.4104C16.8677 20.4104 21.0383 16.2732 21.0383 11.1706C21.0383 6.08328 16.8523 1.93071 11.724 1.93071C6.5957 1.93071 2.40967 6.06796 2.40967 11.1706C2.40967 13.0859 2.99664 14.9247 4.1088 16.4877L4.17058 16.5643L3.49093 18.6329L3.01209 20.0426L4.47952 19.5676L6.6266 18.9087ZM14.8287 16.4724C14.6125 16.4724 14.3962 16.457 14.18 16.4111C13.9019 16.3651 13.5776 16.2732 13.176 16.1352C12.8361 16.028 12.4809 15.8901 12.1565 15.7522C11.8321 15.6143 11.5541 15.4763 11.2915 15.3384C11.0289 15.2005 10.7972 15.0473 10.5191 14.8481C10.2257 14.6336 9.90128 14.3884 9.62324 14.1586C9.3452 13.9287 9.08261 13.6835 8.82001 13.4077C8.55742 13.1472 8.35662 12.9174 8.14036 12.6416C7.92411 12.3811 7.66152 12.0286 7.42982 11.6762C7.19812 11.3391 7.02821 11.0786 6.92008 10.9101C6.79651 10.7262 6.73472 10.6036 6.65749 10.435C6.5957 10.2971 6.47213 10.0366 6.37945 9.79147C6.31766 9.59227 6.27132 9.40839 6.24043 9.20919C6.22498 9.04064 6.22498 8.87208 6.22498 8.68821C6.22498 8.50433 6.22498 8.28981 6.25588 8.07528C6.28677 7.86076 6.34856 7.63091 6.44124 7.41639C6.51847 7.21719 6.6266 7.03331 6.76561 6.84943C6.88919 6.68088 7.02821 6.54297 7.16723 6.40506C7.30625 6.28248 7.44527 6.17522 7.56884 6.11392C7.69241 6.05263 7.78509 6.03731 7.9859 6.03731C8.1867 6.03731 8.46474 6.03731 8.63465 6.05263C8.83546 6.08328 8.89725 6.14457 8.95903 6.20586C9.02082 6.26716 9.08261 6.34377 9.19073 6.57362C9.25252 6.72685 9.36065 6.94137 9.45333 7.17122C9.51511 7.30913 9.5769 7.44703 9.63868 7.58494C9.68502 7.6922 9.73136 7.79947 9.7777 7.89141C9.88583 8.12125 9.97851 8.32045 10.0248 8.47368C10.1021 8.68821 10.1021 8.78015 10.1021 8.87209C10.1021 8.9487 10.0866 9.05596 10.0094 9.17855C9.94762 9.30113 9.82404 9.43904 9.68502 9.59227L9.59234 9.69953C9.46877 9.83744 9.3452 9.97535 9.28341 10.0673C9.19073 10.1899 9.19073 10.2205 9.19073 10.2512C9.19073 10.2971 9.19073 10.3431 9.20618 10.4197C9.22163 10.481 9.28341 10.6036 9.39154 10.7722C9.46877 10.8794 9.56145 11.0173 9.66958 11.1552L9.85494 11.3851C9.96306 11.5383 10.0866 11.6915 10.2411 11.8601C10.4419 12.0746 10.6736 12.3198 10.8899 12.5037C11.0907 12.6722 11.276 12.8101 11.5386 12.9787C11.7394 13.1166 11.9711 13.2392 12.2337 13.3771C12.4191 13.4843 12.6971 13.6223 12.867 13.6835C13.0215 13.7448 13.0987 13.7448 13.176 13.7295C13.2532 13.7295 13.3304 13.7142 13.4077 13.6835C13.4694 13.6529 13.5312 13.6069 13.6548 13.469C13.7475 13.3618 13.8711 13.1932 13.9792 13.04L14.0564 12.948C14.18 12.7948 14.2727 12.6722 14.3499 12.5956C14.4271 12.5037 14.5044 12.4577 14.5816 12.427C14.6743 12.3964 14.7515 12.3964 14.8287 12.4117C14.906 12.427 15.0141 12.4424 15.3539 12.5956C15.6783 12.7335 16.2189 13.0093 16.6206 13.2085C17.0531 13.423 17.2539 13.5303 17.3774 13.6069C17.5165 13.6989 17.5473 13.7602 17.5473 13.8827C17.5473 13.99 17.5319 14.1586 17.5165 14.3118C17.501 14.465 17.4701 14.5723 17.4238 14.7102C17.3774 14.8634 17.3156 15.0167 17.2539 15.1392C17.1766 15.2771 17.0994 15.3997 16.9913 15.5223C16.8677 15.6602 16.7287 15.7828 16.5742 15.8747C16.4352 15.9667 16.2807 16.0433 16.1572 16.1046L16.0181 16.1659C15.9255 16.2119 15.8328 16.2578 15.7092 16.3038C15.5856 16.3498 15.3694 16.3957 15.0913 16.4264C14.9832 16.4724 14.906 16.4724 14.8287 16.4724ZM8.1867 6.20586C8.10947 6.20586 8.04768 6.20586 7.9859 6.20586C7.81598 6.20586 7.73875 6.22119 7.63063 6.26716C7.5225 6.31312 7.39893 6.40506 7.27535 6.52765C7.13633 6.65023 7.01276 6.78814 6.88919 6.94137C6.76561 7.10993 6.65749 7.2938 6.58026 7.47768C6.50302 7.67688 6.44124 7.87608 6.41034 8.09061C6.37945 8.30513 6.37945 8.50433 6.37945 8.68821C6.37945 8.87208 6.37945 9.02532 6.3949 9.19387C6.41034 9.37775 6.45668 9.56162 6.51847 9.7455C6.5957 9.97535 6.71928 10.2358 6.78106 10.3737C6.87374 10.5423 6.92008 10.6649 7.04365 10.8334C7.15178 11.002 7.32169 11.2625 7.53795 11.5996C7.76964 11.9367 8.03224 12.2891 8.23304 12.5496C8.4493 12.8254 8.6501 13.04 8.91269 13.3158C9.17529 13.5763 9.43788 13.8368 9.71592 14.0513C9.99396 14.2811 10.3029 14.5263 10.5964 14.7408C10.859 14.9247 11.0907 15.0779 11.3533 15.2159C11.6159 15.3538 11.8939 15.4917 12.2028 15.6143C12.5272 15.7522 12.8825 15.8748 13.2223 15.9973C13.6239 16.1352 13.9328 16.2119 14.1954 16.2578C14.4889 16.3038 14.767 16.3191 15.0296 16.3038C15.2921 16.2885 15.4929 16.2272 15.6165 16.1965C15.7246 16.1506 15.8019 16.1199 15.91 16.0739L16.049 15.9973C16.1726 15.936 16.3271 15.8594 16.4506 15.7828C16.5897 15.6909 16.7287 15.5836 16.8368 15.461C16.9295 15.3538 17.0067 15.2465 17.0685 15.1239C17.1303 15.0013 17.1921 14.8481 17.2384 14.7102C17.2848 14.5876 17.3002 14.4803 17.3156 14.3424C17.3311 14.2045 17.3465 14.036 17.3465 13.944C17.3465 13.8674 17.3465 13.8521 17.2539 13.7908C17.1457 13.7142 16.9295 13.6069 16.5124 13.3924C16.1108 13.1932 15.5702 12.9327 15.2458 12.7795C14.9214 12.6416 14.8287 12.6109 14.767 12.5956C14.6897 12.5803 14.6434 12.5803 14.6125 12.6109C14.5662 12.6262 14.5044 12.6722 14.4426 12.7488C14.3653 12.8254 14.2881 12.9327 14.1645 13.1013L14.0873 13.1932C13.9792 13.3464 13.8556 13.515 13.7629 13.6223C13.6394 13.7602 13.5621 13.8368 13.4694 13.8827C13.3768 13.9287 13.2686 13.944 13.1914 13.944C13.0987 13.944 13.006 13.944 12.8207 13.8827C12.6353 13.8061 12.3573 13.6682 12.1565 13.561C11.8939 13.4231 11.6622 13.2851 11.4614 13.1626C11.1988 12.994 10.998 12.8561 10.7972 12.6722C10.5809 12.4883 10.3338 12.2432 10.133 12.0133C9.97851 11.8294 9.85494 11.6762 9.73136 11.523L9.56145 11.2931C9.45333 11.1552 9.3452 11.0326 9.26797 10.9101C9.17529 10.7568 9.09805 10.6342 9.06716 10.527C9.03627 10.4197 9.03627 10.3431 9.03627 10.2818C9.05171 10.2052 9.06716 10.1439 9.15984 10.0213C9.23707 9.92938 9.36065 9.77615 9.48422 9.63824L9.5769 9.53098C9.70047 9.37775 9.82404 9.23984 9.88583 9.13258C9.94762 9.04064 9.94762 8.96402 9.96306 8.88741C9.96306 8.81079 9.96306 8.73418 9.90128 8.5503C9.85494 8.41239 9.76226 8.21319 9.65413 7.98334C9.60779 7.89141 9.56145 7.78414 9.51511 7.67688C9.45332 7.53897 9.39154 7.40107 9.32975 7.26316C9.23707 7.03331 9.14439 6.81879 9.06716 6.66556C8.95903 6.43571 8.91269 6.37442 8.86635 6.32845C8.82001 6.28248 8.78912 6.25183 8.61921 6.22119C8.49564 6.22119 8.34117 6.20586 8.1867 6.20586Z" fill="#D73136"/>
</svg>
